<?xml version="1.0" encoding="utf-8"?>
<svg xmlns="http://www.w3.org/2000/svg" viewBox="0 0 500 100">
  <text style="fill: rgb(255, 255, 255); font-family: 'Cooper Black', Cooper, 'Trebuchet MS', Arial, sans-serif; font-size: 97.3962px; font-weight: 700; letter-spacing: 3px; stroke: rgb(255, 255, 255); stroke-width: 3.60914px; word-spacing: 1.2px; white-space: pre;" transform="matrix(0.748673,0,0,0.882991,90.331757,5.843151)" x="0" y="91.909">PiCoBlock</text>
  <path d="M 68.678 32.685 C 63.506 33.739 50.345 35.274 48.894 30.625 C 47.361 24.709 54.859 23.666 51.678 12.056 C 50.635 8.252 46.034 4.96 39.611 5.38 C 34.569 5.528 27.996 7.59 27.485 16.193 C 26.706 29.305 39.611 28.609 31.897 33.457 C 24.207 36.287 17.42 33.272 11.525 32.33 C 10.23 36.716 5.19 51.86 12.139 51.085 C 18.152 50.423 17.342 49.857 21.813 51.052 C 27.058 52.457 27.333 57.43 27.003 59.399 C 26.54 62.14 22.992 65.044 19.746 65.136 C 15.842 65.195 14.702 63.98 11.089 63.004 C 3.153 62.459 9.33 81.083 10.574 87.266 C 17.226 90.1 24.949 91.41 30.054 90.721 C 36.502 89.017 29.023 83.782 30.895 80.092 C 32.112 77.682 35.523 75.973 38.61 75.849 C 44.489 75.44 47.688 77.25 49.154 80.018 C 50.55 84.917 46.072 86.78 47.34 89.017 C 49.858 93.036 62.005 89.936 68.808 88.146 C 69.831 78.642 76.755 60.597 66.834 63.734 C 56.082 67.133 53.997 61.736 53.687 61.261 C 50.581 54.869 54.704 51.489 59.308 50.363 C 63.692 49.484 66.15 52.113 69.096 51.738 C 74.282 51.285 70.064 33.505 68.678 32.685 Z" stroke-linecap="round" stroke-linejoin="round" style="stroke: rgb(255, 255, 255); transform-origin: 2.466px 53.025px; stroke-width: 4px; fill: rgb(255, 255, 255);"/>
</svg>